<?xml version="1.0" encoding="UTF-8"?>
<svg width="256px" height="256px" viewBox="0 0 256 256" version="1.1" xmlns="http://www.w3.org/2000/svg" xmlns:xlink="http://www.w3.org/1999/xlink">
    <title>Icon</title>
    <g id="Page-1" stroke="none" stroke-width="1" fill="none" fill-rule="evenodd">
        <rect id="Rectangle" fill="#071B22" x="0" y="0" width="256" height="256" rx="35"></rect>
        <g id="Icon" fill="#FF312E" fill-rule="nonzero">
            <path d="M80.0660378,171.217095 L80.0660694,217.806 C64.1899042,221.935333 54.0625351,224 49.6839623,224 C46.7616947,224 43.98587,223.419415 41.4031445,222.37626 C46.0940866,216.632017 50.4025666,207.160744 50.8039258,199.115706 C51.4223534,186.719641 58.1753493,171.524356 67.4796009,171.22169 L67.7623251,171.217095 L80.0660378,171.217095 Z M185.115033,171.217095 L185.397758,171.22169 C194.702009,171.524356 201.455005,186.719641 202.073433,199.115706 C202.474792,207.160744 206.783272,216.632017 211.474214,222.37626 C208.891488,223.419415 206.115664,224 203.193396,224 C198.814823,224 188.687454,221.935333 172.811289,217.806 L172.811289,217.806 L172.811321,171.217095 L185.115033,171.217095 Z M39.0188574,135.075556 L39.0181934,135.199981 C39.0181934,147.427062 45.04276,157.228664 51.8311854,161.088667 L52.1105783,161.243943 L52.1105783,161.985936 C46.9078102,164.291903 35.4490802,176.486433 35.4490802,189.889868 C35.4490802,201.613124 33.114822,209.183422 30.1976702,213.705421 C25.3675638,207.609831 22.5,199.613318 22.5,192.004831 C22.5,170.712199 30.1818468,150.859117 39.0188574,135.075556 Z M213.858501,135.075556 C222.695512,150.859117 230.377358,170.712199 230.377358,192.004831 C230.377358,199.613318 227.509795,207.609831 222.679688,213.705421 C219.762536,209.183422 217.428278,201.613124 217.428278,189.889868 C217.428278,176.486433 205.969548,164.291903 200.76678,161.985936 L200.76678,161.985936 L200.76678,161.243943 L201.046173,161.088667 C207.834598,157.228664 213.859165,147.427062 213.859165,135.199981 L213.859165,135.199981 Z M105.657689,164.829917 L105.650943,192.004831 C105.658344,211.95924 100.949385,211.766119 96.2005163,213.439223 L96.0566038,213.490517 L96.0566038,171.217095 C98.1589833,169.748357 101.359345,167.619297 105.657689,164.829917 Z M147.21967,164.829917 C151.518014,167.619297 154.718375,169.748357 156.820755,171.217095 L156.820755,171.217095 L156.820755,213.490517 L156.676842,213.439223 C151.927973,211.766119 147.219015,211.95924 147.226415,192.004831 L147.226415,192.004831 Z M80.0660378,128.042567 L80.0660378,153.627473 L64.1120191,153.627473 C59.2249057,153.627473 55.4050075,146.921744 55.4050075,139.158285 C55.4050075,132.966387 58.8167257,128.206283 63.6761118,128.046702 L63.9287403,128.042567 L80.0660378,128.042567 Z M188.948618,128.042567 L189.201247,128.046702 C194.060633,128.206283 197.472351,132.966387 197.472351,139.158285 C197.472351,146.921744 193.652453,153.627473 188.765339,153.627473 L188.765339,153.627473 L172.811321,153.627473 L172.811321,128.042567 L188.948618,128.042567 Z M96.0566038,153.627473 L96.0566038,113.651058 C96.0566038,111.592502 95.0628184,110.527732 93.0752474,110.456747 L92.8584906,110.452944 L63.3206262,110.452944 C60.4382467,110.452944 57.5382077,110.799856 54.7953429,111.586764 C59.033104,106.23398 62.4657713,102.52133 64.0754717,100.858605 C70.4716981,94.2516834 76.8679246,91.2642652 86.4622642,91.2642652 C105.466457,91.2642652 105.649173,99.477964 105.65818,114.784122 L105.658419,128.042567 L115.245283,120.047284 C117.288522,118.353733 118.352709,116.745212 118.437844,115.221721 L118.443396,115.023487 L118.443396,57.6981132 C118.443396,55.6395576 119.437182,54.5747874 121.424753,54.5038028 L121.64151,54.5 L131.235849,54.5 L131.452606,54.5038028 C133.440177,54.5747874 134.433962,55.6395576 134.433962,57.6981132 L134.433962,57.6981132 L134.433962,115.023487 L134.439514,115.221721 C134.524649,116.745212 135.588836,118.353733 137.632075,120.047284 L137.632075,120.047284 L147.21894,128.042567 L147.21894,115.250114 C147.226415,99.6447353 147.21894,91.2642652 166.415094,91.2642652 C176.009434,91.2642652 182.40566,94.2516834 188.801887,100.858605 C190.411587,102.52133 193.844254,106.23398 198.082016,111.586764 C195.339151,110.799856 192.439112,110.452944 189.556732,110.452944 L189.556732,110.452944 L160.018868,110.452944 L159.802111,110.456747 C157.81454,110.527732 156.820755,111.592502 156.820755,113.651058 L156.820755,113.651058 L156.820755,153.627473 L126.438679,132.839737 L96.0566038,153.627473 Z" id="Lunge-Copy"></path>
        </g>
    </g>
</svg>