<?xml version="1.0" encoding="UTF-8"?>
<svg width="130px" height="106px" viewBox="0 0 130 106" version="1.1" xmlns="http://www.w3.org/2000/svg" xmlns:xlink="http://www.w3.org/1999/xlink">
    <title>Lunge</title>
    <g id="Page-1" stroke="none" stroke-width="1" fill="none" fill-rule="evenodd">
        <g id="Artboard-Copy-15" transform="translate(-10.000000, -16.000000)" fill="#FFFFFF" fill-rule="nonzero">
            <path d="M46,88.9912219 L46.0002612,118.126403 C36.0716652,120.708801 29.7382448,122 27,122 C25.1720875,122 23.4357977,121.636754 21.820328,120.984116 C24.7543899,117.393644 27.4493641,111.469829 27.7003902,106.43814 C28.0857629,98.7135414 32.2803206,89.2508012 38.0669458,88.9964621 L38.3056428,88.9912219 L46,88.9912219 Z M111.694357,88.9912219 L111.933054,88.9964621 C117.719679,89.2508012 121.914237,98.7135414 122.29961,106.43814 C122.550636,111.469829 125.24561,117.393644 128.179672,120.984116 C126.564202,121.636754 124.827913,122 123,122 C120.261755,122 113.928335,120.708801 103.999739,118.126403 L103.999739,118.126403 L104,88.9912219 L111.694357,88.9912219 Z M20.3297483,66.3905562 L20.3299617,66.4672447 C20.3299617,74.0800104 24.064432,80.1892861 28.2867569,82.6251171 L28.5175298,82.7543245 L28.5175298,83.2183433 C25.2638813,84.6604232 18.0979498,92.2865006 18.0979498,100.66859 C18.0979498,107.99983 16.6382247,112.734023 14.8139702,115.561956 C11.7931601,111.749753 10,106.749166 10,101.991222 C10,88.6759804 14.8036225,76.2609201 20.3297483,66.3905562 Z M129.670252,66.3905562 C135.196377,76.2609201 140,88.6759804 140,101.991222 C140,106.749166 138.20684,111.749753 135.18603,115.561956 C133.361775,112.734023 131.90205,107.99983 131.90205,100.66859 C131.90205,92.2865006 124.736119,84.6604232 121.48247,83.2183433 L121.48247,83.2183433 L121.48247,82.7543245 L121.713243,82.6251171 C125.935568,80.1892861 129.670038,74.0800104 129.670038,66.4672447 L129.670038,66.4672447 Z M62.0042182,84.9968802 L62,101.991222 C62.0046223,114.454506 59.0671409,114.349595 56.1011211,115.391707 L56,115.427698 L56,88.9912219 C57.3147624,88.0727187 59.3161685,86.7412714 62.0042182,84.9968802 Z M87.9957818,84.9968802 C90.6838315,86.7412714 92.6852376,88.0727187 94,88.9912219 L94,88.9912219 L94,115.427698 L93.8988789,115.391707 C90.9328591,114.349595 87.9953777,114.454506 88,101.991222 L88,101.991222 Z M46,61.9912219 L46,77.9912219 L36.0228556,77.9912219 C32.9666077,77.9912219 30.5777628,73.7976691 30.5777628,68.9426445 C30.5777628,65.0911952 32.688517,62.1255657 35.7014292,61.9956619 L35.9082388,61.9912219 L46,61.9912219 Z M114.091761,61.9912219 L114.298571,61.9956619 C117.311483,62.1255657 119.422237,65.0911952 119.422237,68.9426445 C119.422237,73.7976691 117.033392,77.9912219 113.977144,77.9912219 L113.977144,77.9912219 L104,77.9912219 L104,61.9912219 L114.091761,61.9912219 Z M56,77.9912219 L56,52.9912219 C56,51.7184946 55.392562,51.0532054 54.177686,50.9953541 L54,50.9912219 L35.5279432,50.9912219 C33.725801,50.9912219 31.91262,51.2080715 30.1976617,51.6999434 C32.8466167,48.3528615 34.9933333,46.0310487 36,44.9912219 C40,40.8594599 44,38.9912219 50,38.9912219 C61.7545774,38.9912219 61.9949824,44.0160104 62.0042862,53.3871668 L62.0046748,61.9912219 L68,56.9912219 C69.254902,55.9510889 69.9192618,54.962244 69.9930796,54.0246873 L70,53.8494964 L70,18 C70,16.7272727 70.607438,16.0619835 71.822314,16.0041322 L72,16 L78,16 L78.177686,16.0041322 C79.392562,16.0619835 80,16.7272727 80,18 L80,18 L80,53.8494964 L80.0069204,54.0246873 C80.0807382,54.962244 80.745098,55.9510889 82,56.9912219 L82,56.9912219 L87.9953252,61.9912219 L87.9957138,53.3871668 C88.0050176,44.0160104 88.2454226,38.9912219 100,38.9912219 C106,38.9912219 110,40.8594599 114,44.9912219 C115.006667,46.0310487 117.153383,48.3528615 119.802338,51.6999434 C118.08738,51.2080715 116.274199,50.9912219 114.472057,50.9912219 L114.472057,50.9912219 L96,50.9912219 L95.822314,50.9953541 C94.607438,51.0532054 94,51.7184946 94,52.9912219 L94,52.9912219 L94,77.9912219 L75,64.9912219 L56,77.9912219 Z" id="Lunge"></path>
        </g>
    </g>
</svg>