<?xml version="1.0" encoding="UTF-8"?>
<svg width="160px" height="160px" viewBox="0 0 160 160" version="1.1" xmlns="http://www.w3.org/2000/svg" xmlns:xlink="http://www.w3.org/1999/xlink">
    <title>Artboard</title>
    <g id="Artboard" stroke="none" stroke-width="1" fill="none" fill-rule="evenodd">
        <path d="M106.6672,37.3327998 C100.7808,37.3327998 96,42.1087997 96,48 L96,70.2495994 L85.3328,59.5823995 L85.3328,16 L74.6672,16 L74.6672,59.5839995 L64,70.2495994 L64,48 C64,42.1087997 59.2192,37.3327998 53.3328,37.3327998 C32.7184,37.3327998 16,73.1551994 16,117.332799 C16,132.062399 27.9376,144.004799 42.6672,144 C54.448,144 64,134.447999 64,122.667199 L64,85.3343992 L80,69.3343994 L96,85.3343992 L96,122.667199 C96,134.447999 105.552,144 117.3328,144 C132.0624,144.004799 144,132.062399 144,117.332799 C144,73.1567994 127.2816,37.3327998 106.6672,37.3327998 Z" id="Path" fill="#000000" fill-rule="nonzero"></path>
    </g>
</svg>