<?xml version="1.0" encoding="UTF-8"?>
<svg width="868px" height="137px" viewBox="0 0 868 137" version="1.1" xmlns="http://www.w3.org/2000/svg" xmlns:xlink="http://www.w3.org/1999/xlink">
    <title>Untitled</title>
    <defs>
        <path d="M179.338,116.82 C189.014,116.82 198.28,111.9 198.28,100.338 L186.8,100.338 C186.8,105.914 183.602,108.62 178.682,108.62 C172.614,108.62 169.662,104.766 169.662,97.058 L198.362,97.058 L198.362,90.826 C198.362,79.592 189.342,73.278 179.338,73.278 L178.026,73.278 C166.546,73.278 157.526,80.822 157.526,93.86 L157.526,96.238 C157.526,109.276 166.382,116.82 178.026,116.82 L179.338,116.82 Z M186.226,90.498 L169.662,90.498 C170.072,85.414 173.188,81.478 178.108,81.478 C184.094,81.478 186.226,85.332 186.226,90.498 Z M224.602,116.82 C234.278,116.82 243.216,113.376 243.216,102.716 C243.216,85.332 216.484,92.794 216.484,85.168 C216.484,82.872 219.6,81.478 224.11,81.478 C228.538,81.478 231.654,82.79 231.654,85.824 L231.654,86.398 L242.15,86.398 C242.314,85.66 242.314,85.086 242.314,84.594 C242.314,77.706 233.95,73.278 225.422,73.278 L223.782,73.278 C214.27,73.278 205.578,77.706 205.578,86.562 C205.578,103.7 232.146,96.238 232.146,104.52 C232.146,107.718 227.308,108.62 223.7,108.62 C219.354,108.62 214.844,107.39 214.844,103.372 C214.844,103.126 214.844,102.88 214.926,102.634 L204.348,102.634 C204.266,103.208 204.266,103.454 204.266,104.274 C204.266,111.818 211.646,116.82 221.896,116.82 L224.602,116.82 Z M270.932,116.82 C280.362,116.82 289.054,111.49 289.054,99.354 L277.738,99.354 C277.738,105.586 274.54,108.62 269.62,108.62 C264.618,108.62 261.748,104.356 261.748,99.026 L261.748,91.728 C261.748,86.07 264.618,81.478 269.702,81.478 C274.786,81.478 277.164,85.414 277.164,90.826 L289.054,90.826 C289.054,79.592 280.444,73.278 270.932,73.278 L269.62,73.278 C258.058,73.278 249.612,80.822 249.612,93.86 L249.612,96.238 C249.612,109.276 257.484,116.82 269.62,116.82 L270.932,116.82 Z M334.646,116.82 C338.746,116.82 341.288,115.426 341.862,115.098 L341.862,107.718 C341.37,107.964 339.73,108.62 338.5,108.62 C337.434,108.62 336.122,107.964 336.122,106.16 L336.122,74.098 L324.15,74.098 L324.15,99.846 C324.15,104.52 320.542,108.128 316.36,108.128 C312.506,108.128 309.8,105.012 309.8,100.748 L309.8,74.098 L297.828,74.098 L297.828,103.372 C297.828,112.474 304.47,116.82 312.506,116.82 C318.41,116.82 322.428,113.95 325.134,110.834 C325.954,114.524 328.906,116.82 334.646,116.82 Z M368.102,116.82 C377.778,116.82 387.044,111.9 387.044,100.338 L375.564,100.338 C375.564,105.914 372.366,108.62 367.446,108.62 C361.378,108.62 358.426,104.766 358.426,97.058 L387.126,97.058 L387.126,90.826 C387.126,79.592 378.106,73.278 368.102,73.278 L366.79,73.278 C355.31,73.278 346.29,80.822 346.29,93.86 L346.29,96.238 C346.29,109.276 355.146,116.82 366.79,116.82 L368.102,116.82 Z M374.99,90.498 L358.426,90.498 C358.836,85.414 361.952,81.478 366.872,81.478 C372.858,81.478 374.99,85.332 374.99,90.498 Z M454.776,116.574 C457.154,116.574 459.942,116.246 461.828,115.508 L461.828,112.72 C458.138,111.572 457.646,105.996 457.646,102.388 C457.646,94.762 452.644,90.334 448.626,89.022 L448.626,88.612 C453.956,86.48 458.712,81.232 458.712,74.18 C458.712,63.52 449.282,59.748 440.016,59.748 L414.596,59.748 L414.596,116 L427.06,116 L427.06,94.352 L436.572,94.352 C443.87,94.352 445.346,101.076 445.346,107.636 C445.346,114.606 449.938,116.574 454.776,116.574 Z M439.36,84.43 L427.06,84.43 L427.06,69.834 L439.77,69.834 C443.624,69.834 445.92,72.458 445.92,75.984 C445.92,80.33 443.132,84.43 439.36,84.43 Z M488.56,116.82 C498.236,116.82 507.502,111.9 507.502,100.338 L496.022,100.338 C496.022,105.914 492.824,108.62 487.904,108.62 C481.836,108.62 478.884,104.766 478.884,97.058 L507.584,97.058 L507.584,90.826 C507.584,79.592 498.564,73.278 488.56,73.278 L487.248,73.278 C475.768,73.278 466.748,80.822 466.748,93.86 L466.748,96.238 C466.748,109.276 475.604,116.82 487.248,116.82 L488.56,116.82 Z M495.448,90.498 L478.884,90.498 C479.294,85.414 482.41,81.478 487.33,81.478 C493.316,81.478 495.448,85.332 495.448,90.498 Z M533.824,116.82 C543.5,116.82 552.438,113.376 552.438,102.716 C552.438,85.332 525.706,92.794 525.706,85.168 C525.706,82.872 528.822,81.478 533.332,81.478 C537.76,81.478 540.876,82.79 540.876,85.824 L540.876,86.398 L551.372,86.398 C551.536,85.66 551.536,85.086 551.536,84.594 C551.536,77.706 543.172,73.278 534.644,73.278 L533.004,73.278 C523.492,73.278 514.8,77.706 514.8,86.562 C514.8,103.7 541.368,96.238 541.368,104.52 C541.368,107.718 536.53,108.62 532.922,108.62 C528.576,108.62 524.066,107.39 524.066,103.372 C524.066,103.126 524.066,102.88 524.148,102.634 L513.57,102.634 C513.488,103.208 513.488,103.454 513.488,104.274 C513.488,111.818 520.868,116.82 531.118,116.82 L533.824,116.82 Z M572.692,130.842 L572.692,111.162 C574.742,113.868 578.678,116.82 584.418,116.82 C593.356,116.82 600.572,109.768 600.572,95.746 L600.572,94.844 C600.572,80.084 592.782,73.278 583.188,73.278 C577.694,73.278 574.004,75.902 571.38,79.346 L570.15,74.098 L560.72,74.098 L560.72,130.842 L572.692,130.842 Z M580.564,108.128 C576.136,108.128 572.692,104.848 572.692,98.206 L572.692,91.4 C572.692,84.758 576.136,81.478 580.564,81.478 C584.992,81.478 588.436,84.758 588.436,91.4 L588.436,98.206 C588.436,104.848 584.992,108.128 580.564,108.128 Z M621.564,66.39 L621.564,56.96 L609.428,56.96 L609.428,66.39 L621.564,66.39 Z M621.482,116 L621.482,74.098 L609.51,74.098 L609.51,116 L621.482,116 Z M644.114,116 L644.114,90.088 C644.114,85.086 646.164,82.216 650.018,82.216 C654.446,82.216 655.84,85.578 655.84,88.448 L655.84,90.334 L665.844,90.334 C666.008,89.186 666.172,87.628 666.172,86.152 C666.172,78.69 662.154,73.278 654.364,73.278 C646.492,73.278 642.966,79.346 642.638,80.248 L641.162,74.098 L632.306,74.098 L632.306,116 L644.114,116 Z M684.54,116.82 C691.264,116.82 695.774,113.294 698.644,109.768 C699.136,114.032 702.088,116.82 708.32,116.82 C712.42,116.82 714.962,115.426 715.536,115.098 L715.536,107.718 C715.044,107.964 713.404,108.62 712.174,108.62 C711.026,108.62 709.796,107.8 709.796,105.668 L709.796,86.316 C709.796,78.526 703.892,73.278 691.756,73.278 L690.034,73.278 C679.046,73.278 671.584,78.444 671.584,85.496 C671.584,86.07 671.666,86.48 671.748,86.972 L683.31,86.972 L683.31,86.316 C683.31,84.43 685.77,81.478 690.608,81.478 C696.184,81.478 698.07,84.266 698.07,87.71 L698.07,90.498 C681.26,90.498 670.272,92.548 670.272,104.602 C670.272,115.098 677.816,116.82 684.54,116.82 Z M688.804,108.62 C684.786,108.62 682.654,107.39 682.654,103.7 C682.654,98.944 687.984,97.222 698.07,97.222 L698.07,99.436 C698.07,105.012 692.904,108.62 688.804,108.62 Z M735.134,116.82 C737.758,116.82 741.94,116.164 744.154,115.262 L744.154,107.554 C742.842,108.128 740.3,108.62 739.07,108.62 C736.774,108.62 734.396,107.882 734.396,103.044 L734.396,82.298 L744.154,82.298 L744.154,74.098 L734.396,74.098 L734.396,60.732 L727.016,60.732 L722.834,74.098 L717.832,74.098 L717.832,82.298 L722.424,82.298 L722.424,105.094 C722.424,113.786 727.098,116.82 735.134,116.82 Z M763.916,66.39 L763.916,56.96 L751.78,56.96 L751.78,66.39 L763.916,66.39 Z M763.834,116 L763.834,74.098 L751.862,74.098 L751.862,116 L763.834,116 Z M794.584,116.82 C806.146,116.82 815.084,109.276 815.084,96.238 L815.084,93.86 C815.084,80.822 806.146,73.278 794.584,73.278 L793.272,73.278 C781.71,73.278 772.772,80.822 772.772,93.86 L772.772,96.238 C772.772,109.276 781.71,116.82 793.272,116.82 L794.584,116.82 Z M793.928,108.62 C788.844,108.62 784.908,105.258 784.908,98.37 L784.908,91.728 C784.908,84.84 788.844,81.478 793.928,81.478 C799.012,81.478 802.948,84.84 802.948,91.728 L802.948,98.37 C802.948,105.258 799.012,108.62 793.928,108.62 Z M835.994,116 L835.994,90.252 C835.994,85.578 839.602,81.97 843.784,81.97 C847.638,81.97 850.344,85.086 850.344,89.35 L850.344,116 L862.316,116 L862.316,86.726 C862.316,77.624 855.674,73.278 847.638,73.278 C841.16,73.278 836.896,76.722 834.272,80.248 L832.96,74.098 L824.022,74.098 L824.022,116 L835.994,116 Z" id="path-1"></path>
    </defs>
    <g id="Page-1" stroke="none" stroke-width="1" fill="none" fill-rule="evenodd">
        <g id="letterhead" fill="#000000" fill-rule="nonzero">
            <g id="escueRespiration">
                <use xlink:href="#path-1"></use>
                <use xlink:href="#path-1"></use>
            </g>
            <path d="M115.125687,82.631572 L115.366707,82.63629 C121.93269,82.893606 126.694715,93.624982 127.131634,102.3828 C127.415774,108.078246 130.465865,114.783359 133.787408,118.850306 C131.95883,119.588913 129.993524,120 127.924528,120 C124.824689,120 117.654996,118.538322 106.41545,115.614966 L106.41545,115.614966 L106.415094,82.631572 L115.125687,82.631572 Z M135.474704,57.0440319 C141.731138,68.218332 147.169811,82.273849 147.169811,97.348553 C147.169811,102.735097 145.139674,108.39635 141.720269,112.712012 C139.654965,109.510621 138.002321,104.151066 138.002321,95.851234 C138.002321,86.362076 129.889946,77.728781 126.20657,76.096238 L126.20657,76.096238 L126.20657,75.570933 L126.454564,75.432298 C131.239992,72.679903 135.475515,65.758923 135.475515,57.1327298 L135.475515,57.1327298 L135.474704,57.0440319 Z M88.297111,78.109676 C91.340187,80.084458 93.605929,81.591757 95.09434,82.631572 L95.09434,82.631572 L95.09434,112.559658 L94.98821,112.521849 C91.627618,111.338958 88.29665,111.469623 88.301887,97.348553 L88.301887,97.348553 L88.297111,78.109676 Z M117.83973,52.0655342 L118.059313,52.0699534 C121.477904,52.2080857 123.874231,55.5687445 123.874231,59.9350692 C123.874231,65.431324 121.169878,70.178742 117.709975,70.178742 L117.709975,70.178742 L106.415094,70.178742 L106.415094,52.0655342 L117.83973,52.0655342 Z M52.0754717,70.178742 L44.8905653,75.124601 L46.8171931,87.106492 L52.0754717,82.631572 C53.563882,81.591757 55.8296247,80.084458 58.8726999,78.109676 L58.8726999,78.109676 L58.8679246,97.348553 C58.8732168,111.618265 55.4716982,111.334628 52.0754717,112.559658 C34.2265202,117.519886 23.2831239,120 19.245283,120 C8.1249497,120 0,108.124559 0,97.348553 C0,65.089521 24.9056604,37.4977177 29.4339623,32.8202512 C33.9622642,28.1427847 38.4905661,26.0277984 45.2830189,26.0277984 C58.8732168,26.0277984 58.8679246,31.9608746 58.8732168,43.0089305 L58.8732168,52.0655342 L65.6603774,46.4051569 C67.1698114,45.1540535 67.9245284,43.9684967 67.9245284,42.8484865 L67.9245284,42.8484865 L67.9245284,2.2641509 C67.9245284,0.754717 68.6792453,0 70.1886793,0 L70.1886793,0 L76.981132,0 L77.1658805,0.0039308 C78.5521488,0.0642034 79.245283,0.8176101 79.245283,2.2641509 L79.245283,2.2641509 L79.245283,42.8484865 L79.2522711,43.0357618 C79.3314698,44.1004276 80.083857,45.2235593 81.509434,46.4051569 L81.509434,46.4051569 L88.296595,52.0655342 L88.296764,42.6790241 C88.30314,31.8428063 88.432497,26.0277984 101.886792,26.0277984 C108.679245,26.0277984 113.207547,28.1427847 117.735849,32.8202512 C118.875389,33.9973279 121.305363,36.6254984 124.304109,40.4149083 C122.362772,39.8581584 120.310265,39.612704 118.270253,39.612704 L118.270253,39.612704 L97.358491,39.612704 L97.173742,39.6166349 C95.787474,39.6769074 95.09434,40.4303141 95.09434,41.876855 L95.09434,41.876855 L95.09434,70.178742 L73.5849057,55.4617607 L52.0754717,70.178742 Z" id="Lunge"></path>
        </g>
    </g>
</svg>