<?xml version="1.0" encoding="UTF-8"?>
<svg width="988px" height="200px" viewBox="0 0 988 200" version="1.1" xmlns="http://www.w3.org/2000/svg" xmlns:xlink="http://www.w3.org/1999/xlink">
    <title>Artboard Copy 16</title>
    <g id="Artboard-Copy-16" stroke="none" stroke-width="1" fill="none" fill-rule="evenodd">
        <text id="escue-Respiration" font-family="Chivo-Bold, Chivo" font-size="82" font-weight="bold" line-spacing="56" fill="#000000">
            <tspan x="171" y="177">escue Respiration</tspan>
        </text>
        <path d="M135.125687,122.631572 L135.366707,122.63629 C141.93269,122.893606 146.694715,133.624982 147.131634,142.3828 C147.415774,148.078246 150.465865,154.783359 153.787408,158.850306 C151.95883,159.588913 149.993524,160 147.924528,160 C144.824689,160 137.654996,158.538322 126.41545,155.614966 L126.41545,155.614966 L126.415094,122.631572 L135.125687,122.631572 Z M155.474704,97.0440319 C161.731138,108.218332 167.169811,122.273849 167.169811,137.348553 C167.169811,142.735097 165.139674,148.39635 161.720269,152.712012 C159.654965,149.510621 158.002321,144.151066 158.002321,135.851234 C158.002321,126.362076 149.889946,117.728781 146.20657,116.096238 L146.20657,116.096238 L146.20657,115.570933 L146.454564,115.432298 C151.239992,112.679903 155.475515,105.758923 155.475515,97.1327298 L155.475515,97.1327298 Z M108.297111,118.109676 C111.340187,120.084458 113.605929,121.591757 115.09434,122.631572 L115.09434,122.631572 L115.09434,152.559658 L114.98821,152.521849 C111.627618,151.338958 108.29665,151.469623 108.301887,137.348553 L108.301887,137.348553 Z M137.83973,92.0655342 L138.059313,92.0699534 C141.477904,92.2080857 143.874231,95.5687445 143.874231,99.9350692 C143.874231,105.431324 141.169878,110.178742 137.709975,110.178742 L137.709975,110.178742 L126.415094,110.178742 L126.415094,92.0655342 L137.83973,92.0655342 Z M72.0754717,110.178742 L64.8905653,115.124601 L66.8171931,127.106492 L72.0754717,122.631572 C73.563882,121.591757 75.8296247,120.084458 78.8726999,118.109676 L78.8726999,118.109676 L78.8679246,137.348553 C78.8732168,151.618265 75.4716982,151.334628 72.0754717,152.559658 C54.2265202,157.519886 43.2831239,160 39.245283,160 C28.1249497,160 20,148.124559 20,137.348553 C20,105.089521 44.9056604,77.4977177 49.4339623,72.8202512 C53.9622642,68.1427847 58.4905661,66.0277984 65.2830189,66.0277984 C78.8732168,66.0277984 78.8679246,71.9608746 78.8732168,83.0089305 L78.8732168,92.0655342 L85.6603774,86.4051569 C87.1698114,85.1540535 87.9245284,83.9684967 87.9245284,82.8484865 L87.9245284,82.8484865 L87.9245284,42.2641509 C87.9245284,40.754717 88.6792453,40 90.1886793,40 L90.1886793,40 L96.981132,40 L97.1658805,40.0039308 C98.5521488,40.0642034 99.245283,40.8176101 99.245283,42.2641509 L99.245283,42.2641509 L99.245283,82.8484865 L99.2522711,83.0357618 C99.3314698,84.1004276 100.083857,85.2235593 101.509434,86.4051569 L101.509434,86.4051569 L108.296595,92.0655342 L108.296764,82.6790241 C108.30314,71.8428063 108.432497,66.0277984 121.886792,66.0277984 C128.679245,66.0277984 133.207547,68.1427847 137.735849,72.8202512 C138.875389,73.9973279 141.305363,76.6254984 144.304109,80.4149083 C142.362772,79.8581584 140.310265,79.612704 138.270253,79.612704 L138.270253,79.612704 L117.358491,79.612704 L117.173742,79.6166349 C115.787474,79.6769074 115.09434,80.4303141 115.09434,81.876855 L115.09434,81.876855 L115.09434,110.178742 L93.5849057,95.4617607 L72.0754717,110.178742 Z" id="Lunge" fill="#000000" fill-rule="nonzero"></path>
    </g>
</svg>